<?xml version="1.0" encoding="UTF-8" standalone="no"?>
<!DOCTYPE svg PUBLIC "-//W3C//DTD SVG 1.1//EN" "http://www.w3.org/Graphics/SVG/1.1/DTD/svg11.dtd">
<svg width="100%" height="100%" viewBox="0 0 376 165" version="1.1" xmlns="http://www.w3.org/2000/svg" xmlns:xlink="http://www.w3.org/1999/xlink" xml:space="preserve" xmlns:serif="http://www.serif.com/" style="fill-rule:evenodd;clip-rule:evenodd;stroke-linejoin:round;stroke-miterlimit:2;">
    <g id="Capa-1" serif:id="Capa 1" transform="matrix(1,0,0,1,-64.0055,-437.76)">
        <g id="circle828" transform="matrix(1,0,0,1,64.0055,437.76)">
            <path d="M187.499,0.028C159.46,0.033 133.288,14.381 118.205,38.018L0,38.018L11.768,49.785L112.065,49.785C110.161,54.214 108.651,58.802 107.551,63.495L25.477,63.495L37.101,75.119L105.648,75.119C105.423,77.489 105.301,79.867 105.282,82.247C105.304,84.445 105.414,86.641 105.611,88.83L50.812,88.83L62.436,100.454L107.399,100.454C108.441,105.142 109.892,109.729 111.735,114.164L76.146,114.164L87.913,125.931L117.964,125.931C132.964,149.847 159.269,164.424 187.499,164.464C215.73,164.424 242.036,149.847 257.036,125.931L287.087,125.931L298.854,114.164L263.264,114.164C265.108,109.729 266.559,105.142 267.601,100.454L312.564,100.454L324.188,88.83L269.389,88.83C269.586,86.641 269.696,84.445 269.718,82.247C269.7,79.867 269.578,77.489 269.353,75.119L337.899,75.119L349.523,63.495L267.449,63.495C266.35,58.802 264.839,54.214 262.935,49.785L363.232,49.785L375,38.018L256.795,38.018C241.711,14.381 215.539,0.033 187.499,0.028ZM187.499,11.173C187.499,11.173 187.499,11.173 187.499,11.173C226.489,11.173 258.573,43.257 258.573,82.247C258.573,121.237 226.489,153.321 187.499,153.321C187.499,153.321 187.499,153.321 187.499,153.321C148.509,153.321 116.425,121.237 116.425,82.247C116.425,43.257 148.509,11.173 187.499,11.173Z" style="fill:rgb(18,10,8);fill-rule:nonzero;"/>
        </g>
        <g transform="matrix(0.250972,0,0,0.250972,100.935,419.611)">
            <path d="M599.963,203.083C546.478,203.083 539.765,203.317 518.758,204.273C497.792,205.233 483.481,208.552 470.959,213.422C458.006,218.452 447.019,225.181 436.072,236.132C425.118,247.078 418.389,258.066 413.342,271.015C408.46,283.541 405.136,297.856 404.193,318.814C403.257,339.821 403.011,346.537 403.011,400.023C403.011,453.508 403.249,460.2 404.201,481.207C405.165,502.173 408.484,516.484 413.35,529.006C418.385,541.959 425.113,552.946 436.064,563.893C447.007,574.848 457.994,581.593 470.939,586.623C483.469,591.493 497.784,594.812 518.746,595.772C539.753,596.728 546.461,596.962 599.943,596.962C653.432,596.962 660.124,596.728 681.131,595.772C702.097,594.812 716.424,591.493 728.955,586.623C741.903,581.593 752.874,574.848 763.817,563.893C774.772,552.946 781.5,541.959 786.547,529.01C791.389,516.484 794.712,502.169 795.697,481.211C796.64,460.204 796.886,453.508 796.886,400.023C796.886,346.537 796.64,339.825 795.697,318.818C794.712,297.852 791.389,283.541 786.547,271.019C781.5,258.066 774.772,247.078 763.817,236.132C752.862,225.177 741.907,218.448 728.942,213.422C716.387,208.552 702.068,205.233 681.102,204.273C660.095,203.317 653.408,203.083 599.906,203.083L599.963,203.083ZM582.296,238.573C587.539,238.565 593.39,238.573 599.963,238.573C652.546,238.573 658.778,238.762 679.543,239.705C698.745,240.583 709.166,243.792 716.108,246.488C725.299,250.057 731.851,254.324 738.74,261.217C745.633,268.11 749.9,274.675 753.478,283.865C756.173,290.799 759.386,301.22 760.26,320.422C761.203,341.183 761.409,347.419 761.409,399.977C761.409,452.536 761.203,458.772 760.26,479.533C759.382,498.735 756.173,509.156 753.478,516.09C749.908,525.28 745.633,531.824 738.74,538.713C731.847,545.606 725.303,549.873 716.108,553.443C709.174,556.151 698.745,559.351 679.543,560.229C658.782,561.173 652.546,561.378 599.963,561.378C547.376,561.378 541.144,561.173 520.383,560.229C501.181,559.343 490.76,556.134 483.814,553.439C474.623,549.869 468.059,545.602 461.166,538.709C454.273,531.816 450.006,525.268 446.428,516.073C443.732,509.139 440.52,498.718 439.646,479.516C438.702,458.756 438.514,452.519 438.514,399.928C438.514,347.337 438.702,341.133 439.646,320.373C440.524,301.171 443.732,290.75 446.428,283.808C449.998,274.617 454.273,268.052 461.166,261.16C468.059,254.267 474.623,250 483.814,246.422C490.756,243.714 501.181,240.514 520.383,239.632C538.551,238.811 545.591,238.565 582.296,238.524L582.296,238.573ZM705.088,271.273C692.123,271.273 681.455,281.941 681.455,294.906C681.455,307.871 692.123,318.539 705.088,318.539C718.052,318.539 728.721,307.871 728.721,294.906C728.721,294.903 728.721,294.901 728.721,294.898C728.721,281.851 718.135,271.265 705.088,271.265L705.088,271.273ZM599.963,298.886C544.11,298.886 498.826,344.17 498.826,400.023C498.826,455.875 544.11,501.139 599.963,501.139C655.816,501.139 701.088,455.875 701.088,400.023C701.088,344.17 655.812,298.886 599.959,298.886L599.963,298.886ZM599.963,334.376C636.216,334.376 665.61,363.765 665.61,400.023C665.61,436.276 636.216,465.669 599.963,465.669C563.706,465.669 534.316,436.276 534.316,400.023C534.316,363.765 563.706,334.376 599.963,334.376Z" style="fill-rule:nonzero;"/>
        </g>
    </g>
</svg>
